<svg width="16.734" height="16.734" viewBox="0 0 16.734 16.734" xmlns="http://www.w3.org/2000/svg">
    <g fill="none" fill-rule="evenodd">
        <path fill="#FFF" d="M4.132 2.49h8.4v11.2h-8.4z"/>
        <path d="M8.367 16.734a8.026 8.026 0 0 0 3.228-.656 8.553 8.553 0 0 0 2.67-1.813 8.553 8.553 0 0 0 1.813-2.67 8.026 8.026 0 0 0 .656-3.228 8.026 8.026 0 0 0-.656-3.228 8.553 8.553 0 0 0-1.813-2.67A8.54 8.54 0 0 0 11.591.656 8.055 8.055 0 0 0 8.359 0a8.026 8.026 0 0 0-3.228.656A8.588 8.588 0 0 0 .656 5.14 8.026 8.026 0 0 0 0 8.367c0 1.143.219 2.22.656 3.228a8.553 8.553 0 0 0 1.813 2.67 8.553 8.553 0 0 0 2.67 1.813 8.026 8.026 0 0 0 3.228.656zm0-3.535a.386.386 0 0 1-.402-.402v-.607a3.095 3.095 0 0 1-1.493-.525 1.963 1.963 0 0 1-.849-1.313.71.71 0 0 1-.012-.13.478.478 0 0 1 .492-.5c.126-.001.233.033.32.101a.665.665 0 0 1 .205.324 1.4 1.4 0 0 0 .439.714c.221.197.52.323.898.377V8.745l-.057-.017c-.706-.17-1.239-.42-1.6-.75-.36-.331-.541-.765-.541-1.3 0-.58.206-1.057.62-1.432.412-.375.938-.598 1.578-.669v-.582a.386.386 0 0 1 .402-.402c.115 0 .21.037.287.11.077.075.115.172.115.292v.582c.542.06 1.01.24 1.407.538a1.994 1.994 0 0 1 .796 1.259.71.71 0 0 1 .012.131.488.488 0 0 1-.14.361.488.488 0 0 1-.36.14c-.252 0-.424-.14-.517-.419a1.437 1.437 0 0 0-.44-.689 1.579 1.579 0 0 0-.758-.344v2.354l.115.024c.733.132 1.285.372 1.657.722.372.35.558.812.558 1.387 0 .64-.224 1.144-.673 1.513-.448.37-1 .587-1.657.652v.59a.386.386 0 0 1-.402.403zm-.402-5.504V5.554c-.355.06-.636.188-.84.385a.918.918 0 0 0-.308.68c0 .252.087.463.262.633.175.17.451.311.829.426l.057.017zM8.77 8.94v2.297c.432-.049.753-.177.964-.385.21-.208.316-.46.316-.755a.972.972 0 0 0-.242-.673c-.161-.18-.447-.325-.857-.434l-.18-.05z" fill="#F28521" fill-rule="nonzero"/>
    </g>
</svg>
