<svg width="17.333" height="17.333" viewBox="0 0 17.333 17.333" xmlns="http://www.w3.org/2000/svg">
    <g fill="none" fill-rule="evenodd">
        <path fill="#FFF" d="M4 3h9v12H4z"/>
        <path d="M8.662 17.333a8.37 8.37 0 0 0 3.356-.677 8.77 8.77 0 0 0 2.76-1.874 8.911 8.911 0 0 0 1.874-2.764 8.326 8.326 0 0 0 .681-3.356 8.306 8.306 0 0 0-.68-3.346 8.911 8.911 0 0 0-1.875-2.765A8.756 8.756 0 0 0 12.013.677 8.379 8.379 0 0 0 8.663 0a8.379 8.379 0 0 0-3.351.677A8.853 8.853 0 0 0 .677 5.316 8.35 8.35 0 0 0 0 8.662c0 1.193.226 2.311.677 3.356a8.818 8.818 0 0 0 1.874 2.764 8.818 8.818 0 0 0 2.765 1.874 8.35 8.35 0 0 0 3.346.677zm-.902-4.56a1.04 1.04 0 0 1-.5-.12 1.43 1.43 0 0 1-.419-.357L4.921 10a1.323 1.323 0 0 1-.204-.337.92.92 0 0 1-.066-.344.87.87 0 0 1 .27-.644.881.881 0 0 1 .64-.267.88.88 0 0 1 .407.09c.117.06.23.159.34.296l1.436 1.755 3.19-5.078c.22-.35.49-.525.813-.525.246 0 .463.083.652.247a.79.79 0 0 1 .283.623c0 .104-.02.21-.061.32-.042.11-.095.216-.16.32L8.646 12.28c-.11.159-.24.28-.39.365a.993.993 0 0 1-.496.127z" fill="#F28521" fill-rule="nonzero"/>
    </g>
</svg>
