<svg width="12" height="14" viewBox="0 0 12 14" xmlns="http://www.w3.org/2000/svg">
    <path d="m6.618.082 3.75 1.029C11.333 1.375 12 2.22 12 3.186v3.866c0 2.092-1.054 4.054-2.827 5.268L7.308 13.6a2.331 2.331 0 0 1-2.616 0L2.827 12.32C1.054 11.106 0 9.144 0 7.052V3.185c0-.963.666-1.81 1.632-2.075L5.382.084A2.343 2.343 0 0 1 6.617.082h.001zM8.763 5.18a.818.818 0 0 0-1.06.03L5.366 7.427l-1.144-.823c-.323-.232-.794-.187-1.055.099a.616.616 0 0 0-.163.49.65.65 0 0 0 .275.448l1.687 1.212c.306.22.75.192 1.019-.063l2.812-2.666c.136-.13.209-.301.203-.478a.636.636 0 0 0-.237-.465z" fill="#03BE00" fill-rule="evenodd"/>
</svg>
