<svg width="14" height="16.999" viewBox="0 0 14 16.999" xmlns="http://www.w3.org/2000/svg">
    <g fill="none" fill-rule="evenodd">
        <path d="m7.721.1 4.375 1.249A2.621 2.621 0 0 1 14 3.869v4.694c0 2.54-1.23 4.923-3.298 6.397l-2.176 1.552c-.913.65-2.139.65-3.052 0L3.298 14.96A7.857 7.857 0 0 1 0 8.563V3.868c0-1.17.777-2.198 1.904-2.52L6.279.102A2.63 2.63 0 0 1 7.72.1h.001z" fill="#AEF161"/>
        <path d="M10.223 5.407a.876.876 0 0 0-1.236.04L6.26 8.35 4.925 7.27a.876.876 0 0 0-1.42.772c.024.23.14.442.32.588l1.969 1.588a.876.876 0 0 0 1.188-.082l3.281-3.494a.872.872 0 0 0-.04-1.235z" fill="#000"/>
    </g>
</svg>
