<svg width="17" height="17" viewBox="0 0 17 17" xmlns="http://www.w3.org/2000/svg">
    <g fill="none" fill-rule="evenodd">
        <path d="M0 0h17v17H0z"/>
        <path d="M8.5 1.417a7.083 7.083 0 1 1 0 14.166 7.083 7.083 0 0 1 0-14.166zm0 2.302a.531.531 0 0 0-.531.531v.225c-1.155.206-2.125 1.074-2.125 2.254s.97 2.048 2.125 2.255v2.457c-.663-.18-1.063-.69-1.063-1.17a.531.531 0 1 0-1.062 0c0 1.18.97 2.048 2.125 2.254v.225a.531.531 0 1 0 1.062 0v-.225c1.155-.206 2.125-1.074 2.125-2.254s-.97-2.048-2.125-2.255V5.558c.663.182 1.063.691 1.063 1.171a.531.531 0 0 0 1.062 0c0-1.18-.97-2.048-2.125-2.254V4.25a.531.531 0 0 0-.531-.531zM9.031 9.1c.663.18 1.063.69 1.063 1.17s-.4.99-1.063 1.17zM7.97 5.558V7.9c-.663-.18-1.063-.69-1.063-1.17s.4-.99 1.063-1.17z" fill="#AEF161" fill-rule="nonzero"/>
    </g>
</svg>
