<svg width="156" height="28" viewBox="0 0 156 28" xmlns="http://www.w3.org/2000/svg" xmlns:xlink="http://www.w3.org/1999/xlink">
    <defs>
        <path d="m13.456 21.276-5.588 2.945a1.167 1.167 0 0 1-1.694-1.23l1.074-6.225c.066-.38-.06-.767-.336-1.035l-4.528-4.405a1.167 1.167 0 0 1 .647-1.99l6.252-.903c.381-.055.71-.294.88-.64l2.79-5.667a1.167 1.167 0 0 1 2.094 0l2.79 5.668c.17.345.499.584.88.64l6.252.901a1.167 1.167 0 0 1 .647 1.991l-4.528 4.405a1.167 1.167 0 0 0-.336 1.035l1.074 6.225a1.167 1.167 0 0 1-1.694 1.23l-5.588-2.945c-.34-.18-.748-.18-1.088 0z" id="zmzrgp2kzb"/>
        <path d="m45.456 21.276-5.588 2.945a1.167 1.167 0 0 1-1.694-1.23l1.074-6.225c.066-.38-.06-.767-.336-1.035l-4.528-4.405a1.167 1.167 0 0 1 .647-1.99l6.252-.903c.381-.055.71-.294.88-.64l2.79-5.667a1.167 1.167 0 0 1 2.094 0l2.79 5.668c.17.345.499.584.88.64l6.252.901a1.167 1.167 0 0 1 .647 1.991l-4.528 4.405a1.167 1.167 0 0 0-.336 1.035l1.074 6.225a1.167 1.167 0 0 1-1.694 1.23l-5.588-2.945c-.34-.18-.748-.18-1.088 0z" id="lb2zcywn1d"/>
        <path d="m77.456 21.276-5.588 2.945a1.167 1.167 0 0 1-1.694-1.23l1.074-6.225c.066-.38-.06-.767-.336-1.035l-4.528-4.405a1.167 1.167 0 0 1 .647-1.99l6.252-.903c.381-.055.71-.294.88-.64l2.79-5.667a1.167 1.167 0 0 1 2.094 0l2.79 5.668c.17.345.499.584.88.64l6.252.901a1.167 1.167 0 0 1 .647 1.991l-4.528 4.405a1.167 1.167 0 0 0-.336 1.035l1.074 6.225a1.167 1.167 0 0 1-1.694 1.23l-5.588-2.945c-.34-.18-.748-.18-1.088 0z" id="0t16cllhje"/>
        <path d="m109.456 21.276-5.588 2.945a1.167 1.167 0 0 1-1.694-1.23l1.074-6.225c.066-.38-.06-.767-.336-1.035l-4.528-4.405a1.167 1.167 0 0 1 .647-1.99l6.252-.903c.381-.055.71-.294.88-.64l2.79-5.667a1.167 1.167 0 0 1 2.094 0l2.79 5.668c.17.345.499.584.88.64l6.252.901a1.167 1.167 0 0 1 .647 1.991l-4.528 4.405a1.167 1.167 0 0 0-.336 1.035l1.074 6.225a1.167 1.167 0 0 1-1.694 1.23l-5.588-2.945c-.34-.18-.748-.18-1.088 0z" id="tb3ubxctyf"/>
        <path d="m141.456 21.276-5.588 2.945a1.167 1.167 0 0 1-1.694-1.23l1.074-6.225c.066-.38-.06-.767-.336-1.035l-4.528-4.405a1.167 1.167 0 0 1 .647-1.99l6.252-.903c.381-.055.71-.294.88-.64l2.79-5.667a1.167 1.167 0 0 1 2.094 0l2.79 5.668c.17.345.499.584.88.64l6.252.901a1.167 1.167 0 0 1 .647 1.991l-4.528 4.405a1.167 1.167 0 0 0-.336 1.035l1.074 6.225a1.167 1.167 0 0 1-1.694 1.23l-5.588-2.945c-.34-.18-.748-.18-1.088 0z" id="llirl1jcqg"/>
        <linearGradient x1="50%" y1="0%" x2="50%" y2="100%" id="b6r2hs9kpa">
            <stop stop-color="#FFD57E" offset="0%"/>
            <stop stop-color="#FFA534" offset="100%"/>
        </linearGradient>
        <linearGradient x1="50%" y1=".758%" x2="50%" y2="100%" id="4476yqs5uc">
            <stop stop-color="#FFCB00" offset="0%"/>
            <stop stop-color="#FF8E00" offset="100%"/>
        </linearGradient>
    </defs>
    <g fill="none" fill-rule="evenodd">
        <g>
            <use fill="url(#b6r2hs9kpa)" xlink:href="#zmzrgp2kzb"/>
            <use fill="url(#4476yqs5uc)" xlink:href="#zmzrgp2kzb"/>
        </g>
        <g>
            <use fill="url(#b6r2hs9kpa)" xlink:href="#lb2zcywn1d"/>
            <use fill="url(#4476yqs5uc)" xlink:href="#lb2zcywn1d"/>
        </g>
        <g>
            <use fill="url(#b6r2hs9kpa)" xlink:href="#0t16cllhje"/>
            <use fill="url(#4476yqs5uc)" xlink:href="#0t16cllhje"/>
        </g>
        <g>
            <use fill="url(#b6r2hs9kpa)" xlink:href="#tb3ubxctyf"/>
            <use fill="url(#4476yqs5uc)" xlink:href="#tb3ubxctyf"/>
        </g>
        <g>
            <use fill="url(#b6r2hs9kpa)" xlink:href="#llirl1jcqg"/>
            <use fill="url(#4476yqs5uc)" xlink:href="#llirl1jcqg"/>
        </g>
    </g>
</svg>
