<svg width="46.758" height="86" viewBox="0 0 46.758 86" xmlns="http://www.w3.org/2000/svg">
    <g fill="#FFF" fill-rule="evenodd">
        <path d="M31.52 71.363c-2.472-.23-5.807 1.329-7.877 2.867 2.464 2.45 5.94 1.882 7.023 1.612 2.112-.528 5.81-2.321 6.9-3.515-3.974.289-3.174-.694-6.047-.964"/>
        <path d="M42.727 52.92c1.488-1.544 3.69-4.962 4.031-6.517-3.124 2.325-2.923 1.097-5.405 2.385-1.355.703-2.643 2.216-3.658 3.827a42.197 42.197 0 0 0 1.19-8.737c2.68-.526 4.125-3.197 4.545-4.089.853-1.805 1.815-5.459 1.693-6.913-2.037 2.998-2.195 1.872-3.96 3.768-1.104 1.184-1.85 3.252-2.26 5.193a43.503 43.503 0 0 0-1.523-10.73A42.126 42.126 0 0 0 32.997 20.7c1.463-1.625 1.313-4.049 1.226-4.838-.179-1.625-1.05-4.552-1.728-5.476-.108 2.992-.674 2.304-1.055 4.424-.218 1.234.076 2.841.55 4.275-3.19-4.844-7.285-8.79-11.922-11.607.373-1.533-.52-3.01-.836-3.475-.642-.95-2.127-2.468-2.837-2.809.918 1.9.352 1.668.814 3.12.284.881 1.04 1.815 1.83 2.56a35.17 35.17 0 0 0-3.533-1.727c.111-1.58-.865-2.747-1.212-3.115C13.558 1.252 11.934.14 11.19 0c1.109 1.667.524 1.597 1.137 2.94.513 1.126 1.926 2.097 3.034 2.582l.036.13c.484.206.958.422 1.424.645a2.922 2.922 0 0 0-1.366-.23c-1.26.096-.976.313-2.536.382.384.356 1.488.855 2.36 1.003.448.077 1.499.273 2.744-.483-.248-.156-.503-.322-.779-.471a34.59 34.59 0 0 1 5.326 3.232c-.7-.46-1.492-.905-2.478-.663-1.334.326-1.015.587-2.676.921.442.444 1.66.98 2.604 1.057.48.04 1.61.157 2.862-1.077a32.912 32.912 0 0 1 4.476 4.101c-.674-.553-1.46-.99-2.464-1.037-1.976-.094-1.596.373-4.031.163.502.753 2.084 1.932 3.396 2.403.657.235 2.174.808 4.218-.233 3.404 4.144 6.032 9.303 7.926 15.58a37.038 37.038 0 0 1 1.463 8.049c-.351-1.168-.886-2.326-1.897-3.293-1.937-1.845-1.833-1.055-4.16-3.421.057 1.172.95 3.717 1.994 5.336.506.787 1.639 2.601 4.157 3.449.05 2.83-.198 5.666-.725 8.446-.247-1.245-.692-2.49-1.639-3.596-1.922-2.243-1.912-1.366-4.2-4.224-.096 1.29.563 4.182 1.51 6.074.441.875 1.392 2.834 3.816 4.07-.982 3.933-2.521 7.709-4.555 11.13.624-2.004 1.392-4.272.581-6.774-.957-2.957-1.294-2.113-2.367-5.815-.606 1.194-1.122 4.242-.96 6.455.082 1.132.236 3.803 2.7 6.21-1.998 3.351-4.469 6.361-7.345 8.845.91-1.864 1.969-3.961 1.61-6.615-.43-3.188-.89-2.411-1.305-6.375-.771 1.073-1.761 4.036-1.966 6.301-.104 1.154-.39 3.858 1.532 6.8-2.78 2.377-5.936 4.266-9.411 5.5-.018.007-.273.104-.689.267 1.008-1.179 1.865-2.57 2.02-4.46.265-3.294-.445-2.69.02-6.743-1.132.785-2.965 3.354-3.74 5.513-.362 1.013-1.208 3.274-.165 6.427C8.867 80.029 1.96 82.908.44 84.28c-.914.83-.204 2.073.359 1.624 1.119-.888 4.178-2.773 5.35-3.578 1.324-.913 4.645-2.178 6.833-2.962-.32.131-.628.267-.918.403 2.13 3.267 5.792 3.307 6.986 3.279 2.328-.058 6.567-1.105 7.944-2.137-4.243-.655-3.21-1.529-6.19-2.524-1.65-.552-3.78-.3-5.745.26 6.846-2.33 12.527-6.856 16.626-12.693 2.712 1.364 5.563.06 6.474-.419 1.868-.99 4.96-3.547 5.727-4.932-3.665 1.194-3.123.076-5.878.485-1.62.242-3.44 1.415-4.942 2.754a39.65 39.65 0 0 0 3.823-8.387c2.862.307 5.125-1.797 5.839-2.534"/>
        <path d="M31.48 29.312c.642.488 2.137 1.667 4.64 1.3-.76-1.344-1.577-2.924-3.331-3.628-2.037-.82-1.761-.215-4.25-1.32.333.935 1.69 2.696 2.94 3.648M37.344 25.921c-.61 1.9-.126 4.869.52 6.813 2.087-1.443 2.288-4.315 2.31-5.223.035-1.774-.478-5.057-1.073-6.16-.538 3.19-1.047 2.36-1.757 4.57M29.59 19.523c-2.009-.535-1.697.017-4.157-.738.387.865 1.811 2.397 3.074 3.16.649.39 2.162 1.342 4.53.67-.826-1.206-1.726-2.632-3.447-3.092M24.303 8.004c.058 1.497 1.227 3.267 2.238 4.298 1.173-1.78.545-3.76.312-4.367-.455-1.187-1.732-3.154-2.478-3.648.466 2.323-.14 1.974-.072 3.717M9.47 4.885c.782.254 1.969-.001 2.733-.316-.639-.928-1.8-.986-2.166-.984-.718.004-2.03.276-2.457.559 1.302.205.979.446 1.89.741"/>
    </g>
</svg>
