<svg width="24" height="24" viewBox="0 0 24 24" xmlns="http://www.w3.org/2000/svg">
    <g fill="none" fill-rule="evenodd">
        <path d="M0 0h24v24H0z"/>
        <path d="M12 2.25c-5.385 0-9.75 4.365-9.75 9.75s4.365 9.75 9.75 9.75 9.75-4.365 9.75-9.75A9.769 9.769 0 0 0 12 2.25zm4.444 10.04a.816.816 0 0 1-.169.244l-3.178 3.178a.713.713 0 0 1-.525.216.731.731 0 0 1-.534-.216.75.75 0 0 1 0-1.059l1.903-1.903H8.25a.75.75 0 1 1 0-1.5h5.69l-1.902-1.903a.75.75 0 0 1 1.059-1.06l3.178 3.179c.07.07.128.152.169.243a.778.778 0 0 1 0 .582z" fill="#fff" fill-rule="nonzero"/>
    </g>
</svg>
